# xmcd CD database file
#
# Track frame offsets:
#	151
#	16158
#	32888
#	63421
#	81514
#	104369
#	121108
#	137146
#	162016
#	182162
#	196328
#
# Disc length: 2706 seconds
#
# Revision: 0
# Processed by: cddbd v1.5PL3 Copyright (c) Steve Scherf et al.
# Submitted via: CDex 1.51
#
DISCID=8f0a900b
DTITLE=Big Daddy and Red Hot Java - Firebrewed
DYEAR=2001
DGENRE=Blues
TTITLE0=Firebrewed
TTITLE1=Shake Your Hips
TTITLE2=Thousand Shades Of Blue
TTITLE3=Blood Stain'd Blues
TTITLE4=Blues For An Angel
TTITLE5=Fireman's Stomp
TTITLE6=Louise
TTITLE7=This Is My Blues Too
TTITLE8=Willie's Slide
TTITLE9=Ain't Nothin' But A Party
TTITLE10=Talkin' Horns On The Porch
EXTD=YEAR: 2001
EXTT0=
EXTT1=
EXTT2=
EXTT3=
EXTT4=
EXTT5=
EXTT6=
EXTT7=
EXTT8=
EXTT9=
EXTT10=
PLAYORDER=
